<svg width="62" height="61" viewBox="0 0 62 61" fill="none" xmlns="http://www.w3.org/2000/svg">
<g id="Social Icons" clip-path="url(#clip0_4164_78)">
<path id="Vector" d="M52.3058 10.5632C48.4179 8.77924 44.2487 7.46491 39.8895 6.71214C39.8101 6.69761 39.7308 6.73392 39.6899 6.80654C39.1537 7.7602 38.5598 9.00434 38.1439 9.98222C33.4553 9.2803 28.7908 9.2803 24.1984 9.98222C23.7824 8.9826 23.1669 7.7602 22.6283 6.80654C22.5874 6.73634 22.5081 6.70004 22.4287 6.71214C18.072 7.46251 13.9028 8.77683 10.0125 10.5632C9.9788 10.5777 9.94993 10.6019 9.93078 10.6334C2.02269 22.4479 -0.143668 33.972 0.919074 45.3533C0.923882 45.4089 0.955139 45.4622 0.998419 45.496C6.21595 49.3277 11.27 51.6538 16.2302 53.1957C16.3096 53.2199 16.3937 53.1908 16.4442 53.1255C17.6176 51.5232 18.6635 49.8336 19.5603 48.0569C19.6132 47.9529 19.5627 47.8294 19.4545 47.7883C17.7955 47.1589 16.2158 46.3916 14.6962 45.5203C14.576 45.4501 14.5664 45.2782 14.677 45.1959C14.9968 44.9562 15.3166 44.7069 15.622 44.4552C15.6772 44.4092 15.7542 44.3995 15.8191 44.4286C25.8021 48.9864 36.6099 48.9864 46.4751 44.4286C46.54 44.3971 46.617 44.4068 46.6746 44.4528C46.9801 44.7045 47.2998 44.9562 47.622 45.1959C47.7326 45.2782 47.7254 45.4501 47.6052 45.5203C46.0856 46.4085 44.5059 47.1589 42.8445 47.7859C42.7363 47.827 42.6882 47.9529 42.7411 48.0569C43.6571 49.8311 44.7031 51.5207 45.8548 53.1231C45.9029 53.1908 45.9894 53.2199 46.0688 53.1957C51.053 51.6538 56.1071 49.3277 61.3246 45.496C61.3703 45.4622 61.3992 45.4113 61.404 45.3557C62.6759 32.1977 59.2736 20.7681 52.3851 10.6358C52.3682 10.6019 52.3394 10.5777 52.3058 10.5632ZM21.0511 38.4233C18.0455 38.4233 15.569 35.6639 15.569 32.2752C15.569 28.8864 17.9975 26.1271 21.0511 26.1271C24.1287 26.1271 26.5812 28.9107 26.5331 32.2752C26.5331 35.6639 24.1046 38.4233 21.0511 38.4233ZM41.3201 38.4233C38.3146 38.4233 35.8381 35.6639 35.8381 32.2752C35.8381 28.8864 38.2665 26.1271 41.3201 26.1271C44.3977 26.1271 46.8502 28.9107 46.8021 32.2752C46.8021 35.6639 44.3977 38.4233 41.3201 38.4233Z" fill="#2E282A"/>
</g>
<defs>
<clipPath id="clip0_4164_78">
<rect width="60.9996" height="60.9996" fill="white" transform="translate(0.666992 0.000976562)"/>
</clipPath>
</defs>
</svg>
