<svg width="62" height="61" viewBox="0 0 62 61" fill="none" xmlns="http://www.w3.org/2000/svg">
<g id="Social Icons">
<path id="Vector" fill-rule="evenodd" clip-rule="evenodd" d="M31.2777 0.000976562C14.4399 0.000976562 0.777832 13.663 0.777832 30.5008C0.777832 47.3386 14.4399 61.0006 31.2777 61.0006C48.0823 61.0006 61.7775 47.3386 61.7775 30.5008C61.7775 13.663 48.0823 0.000976562 31.2777 0.000976562ZM51.4234 14.06C55.0622 18.4927 57.2456 24.1494 57.3117 30.2692C56.4516 30.1039 47.8507 28.3506 39.1838 29.4423C38.9853 29.0122 38.8199 28.549 38.6214 28.086C38.0921 26.829 37.4968 25.5389 36.9012 24.3149C46.4944 20.4115 50.861 14.7878 51.4234 14.06ZM31.2777 4.49987C37.8936 4.49987 43.9473 6.98088 48.5455 11.0497C48.0823 11.7113 44.1457 16.9711 34.8833 20.4444C30.616 12.6045 25.8857 6.18695 25.1579 5.19454C27.1095 4.73142 29.1606 4.49987 31.2777 4.49987ZM20.1959 6.94779C20.8906 7.87403 25.5218 14.3246 29.8552 21.9992C17.6817 25.2411 6.93073 25.175 5.77292 25.175C7.46 17.1034 12.9182 10.3881 20.1959 6.94779ZM5.21056 30.534C5.21056 30.2692 5.21056 30.0046 5.21056 29.74C6.33528 29.773 18.9719 29.9385 31.9723 26.0351C32.7333 27.4905 33.4279 28.979 34.0895 30.4676C33.7586 30.5669 33.3947 30.6663 33.064 30.7654C19.6335 35.0988 12.4882 46.9415 11.8927 47.9339C7.75772 43.3359 5.21056 37.2161 5.21056 30.534ZM31.2777 56.5679C25.257 56.5679 19.6996 54.5169 15.3 51.0765C15.7631 50.1173 21.0558 39.9287 35.7434 34.8013C35.8095 34.7681 35.8427 34.7681 35.9089 34.7351C39.5807 44.229 41.0694 52.2012 41.4663 54.4838C38.3237 55.84 34.8833 56.5679 31.2777 56.5679ZM45.7998 52.1021C45.5352 50.5142 44.1457 42.9058 40.7385 33.5441C48.9094 32.254 56.0546 34.3712 56.9478 34.669C55.8231 41.9134 51.655 48.1655 45.7998 52.1021Z" fill="#2E282A"/>
</g>
</svg>
