<svg width="62" height="61" viewBox="0 0 62 61" fill="none" xmlns="http://www.w3.org/2000/svg">
<g id="Social Icons" clip-path="url(#clip0_4164_76)">
<path id="Vector" d="M30.6111 0.000976562C13.7667 0.000976562 0.111328 13.6564 0.111328 30.5008C0.111328 44.804 9.95911 56.8063 23.2436 60.1027V39.8215H16.9545V30.5008H23.2436V26.4846C23.2436 16.1037 27.9418 11.292 38.1336 11.292C40.0661 11.292 43.4003 11.6714 44.7643 12.0496V20.4981C44.0445 20.4224 42.794 20.3846 41.2409 20.3846C36.2402 20.3846 34.3077 22.2793 34.3077 27.2044V30.5008H44.2702L42.5585 39.8215H34.3077V60.7774C49.41 58.9535 61.1122 46.0947 61.1122 30.5008C61.111 13.6564 47.4556 0.000976562 30.6111 0.000976562Z" fill="#2E282A"/>
</g>
<defs>
<clipPath id="clip0_4164_76">
<rect width="60.9996" height="60.9996" fill="white" transform="translate(0.111328 0.000976562)"/>
</clipPath>
</defs>
</svg>
