<svg width="61" height="61" viewBox="0 0 61 61" fill="none" xmlns="http://www.w3.org/2000/svg">
<g id="Social Icons" clip-path="url(#clip0_4164_81)">
<path id="Vector" d="M30.5003 5.49333C38.6495 5.49333 39.6145 5.52907 42.8194 5.67204C45.7979 5.80309 47.4063 6.30348 48.4785 6.72047C49.8963 7.26851 50.9209 7.9357 51.9812 8.99604C53.0535 10.0683 53.7088 11.081 54.2568 12.4988C54.6738 13.571 55.1742 15.1913 55.3052 18.1579C55.4482 21.3747 55.484 22.3397 55.484 30.477C55.484 38.6261 55.4482 39.5912 55.3052 42.796C55.1742 45.7745 54.6738 47.3829 54.2568 48.4552C53.7088 49.873 53.0416 50.8976 51.9812 51.9579C50.909 53.0302 49.8963 53.6854 48.4785 54.2335C47.4063 54.6505 45.786 55.1508 42.8194 55.2819C39.6026 55.4249 38.6376 55.4606 30.5003 55.4606C22.3511 55.4606 21.3861 55.4249 18.1812 55.2819C15.2027 55.1508 13.5944 54.6505 12.5221 54.2335C11.1043 53.6854 10.0797 53.0182 9.01938 51.9579C7.94712 50.8856 7.29185 49.873 6.74381 48.4552C6.32682 47.3829 5.82643 45.7626 5.69538 42.796C5.55241 39.5793 5.51667 38.6142 5.51667 30.477C5.51667 22.3278 5.55241 21.3628 5.69538 18.1579C5.82643 15.1794 6.32682 13.571 6.74381 12.4988C7.29185 11.081 7.95904 10.0564 9.01938 8.99604C10.0916 7.92378 11.1043 7.26851 12.5221 6.72047C13.5944 6.30348 15.2147 5.80309 18.1812 5.67204C21.3861 5.52907 22.3511 5.49333 30.5003 5.49333ZM30.5003 0.000976562C22.2201 0.000976562 21.1836 0.0367185 17.931 0.179686C14.6904 0.322654 12.4625 0.84687 10.5325 1.59745C8.51899 2.38377 6.81529 3.42029 5.12351 5.12399C3.4198 6.81578 2.38329 8.51948 1.59696 10.521C0.846382 12.463 0.322166 14.679 0.179198 17.9196C0.0362303 21.1841 0.000488281 22.2206 0.000488281 30.5008C0.000488281 38.781 0.0362303 39.8175 0.179198 43.0701C0.322166 46.3107 0.846382 48.5386 1.59696 50.4687C2.38329 52.4821 3.4198 54.1858 5.12351 55.8776C6.81529 57.5694 8.51899 58.6178 10.5205 59.3922C12.4625 60.1428 14.6785 60.667 17.9191 60.81C21.1717 60.953 22.2082 60.9887 30.4884 60.9887C38.7686 60.9887 39.8051 60.953 43.0577 60.81C46.2983 60.667 48.5262 60.1428 50.4563 59.3922C52.4578 58.6178 54.1615 57.5694 55.8533 55.8776C57.5451 54.1858 58.5935 52.4821 59.3679 50.4806C60.1185 48.5386 60.6427 46.3226 60.7857 43.082C60.9286 39.8295 60.9644 38.7929 60.9644 30.5127C60.9644 22.2325 60.9286 21.196 60.7857 17.9434C60.6427 14.7028 60.1185 12.4749 59.3679 10.5449C58.6173 8.51948 57.5808 6.81578 55.8771 5.12399C54.1853 3.43221 52.4816 2.38378 50.4801 1.60937C48.5381 0.858784 46.3221 0.334568 43.0815 0.1916C39.8171 0.0367186 38.7805 0.000976562 30.5003 0.000976562Z" fill="#2E282A"/>
<path id="Vector_2" d="M30.5004 14.834C21.8508 14.834 14.8335 21.8513 14.8335 30.5009C14.8335 39.1504 21.8508 46.1678 30.5004 46.1678C39.15 46.1678 46.1673 39.1504 46.1673 30.5009C46.1673 21.8513 39.15 14.834 30.5004 14.834ZM30.5004 40.6635C24.8889 40.6635 20.3378 36.1124 20.3378 30.5009C20.3378 24.8894 24.8889 20.3382 30.5004 20.3382C36.1119 20.3382 40.663 24.8894 40.663 30.5009C40.663 36.1124 36.1119 40.6635 30.5004 40.6635Z" fill="#2E282A"/>
<path id="Vector_3" d="M50.4441 14.2142C50.4441 16.2396 48.8 17.8718 46.7865 17.8718C44.7611 17.8718 43.1289 16.2277 43.1289 14.2142C43.1289 12.1889 44.773 10.5566 46.7865 10.5566C48.8 10.5566 50.4441 12.2008 50.4441 14.2142Z" fill="#2E282A"/>
</g>
<defs>
<clipPath id="clip0_4164_81">
<rect width="60.9996" height="60.9996" fill="white" transform="translate(0.000488281 0.000976562)"/>
</clipPath>
</defs>
</svg>
