<svg width="62" height="61" viewBox="0 0 62 61" fill="none" xmlns="http://www.w3.org/2000/svg">
<g id="Social Icons" clip-path="url(#clip0_4164_80)">
<path id="Vector" d="M56.7069 0.000976562H4.72615C2.23612 0.000976562 0.222656 1.96679 0.222656 4.39724V56.5924C0.222656 59.0229 2.23612 61.0006 4.72615 61.0006H56.7069C59.1969 61.0006 61.2223 59.0229 61.2223 56.6044V4.39724C61.2223 1.96679 59.1969 0.000976562 56.7069 0.000976562ZM18.32 51.9817H9.26538V22.8639H18.32V51.9817ZM13.7927 18.8966C10.8857 18.8966 8.53862 16.5495 8.53862 13.6544C8.53862 10.7593 10.8857 8.41225 13.7927 8.41225C16.6878 8.41225 19.0348 10.7593 19.0348 13.6544C19.0348 16.5376 16.6878 18.8966 13.7927 18.8966ZM52.2034 51.9817H43.1607V37.8279C43.1607 34.4562 43.1011 30.1076 38.4547 30.1076C33.7486 30.1076 33.0338 33.7891 33.0338 37.5896V51.9817H24.003V22.8639H32.6764V26.8432H32.7955C33.9988 24.5557 36.9535 22.1372 41.3498 22.1372C50.5116 22.1372 52.2034 28.1657 52.2034 36.0051V51.9817V51.9817Z" fill="#2E282A"/>
</g>
<defs>
<clipPath id="clip0_4164_80">
<rect width="60.9996" height="60.9996" fill="white" transform="translate(0.222656 0.000976562)"/>
</clipPath>
</defs>
</svg>
