<svg width="43" height="32" viewBox="0 0 43 32" fill="none" xmlns="http://www.w3.org/2000/svg">
<g id="marciano">
<path id="Vector" d="M38.569 27.2002V20.2012H34.3686V24.4015V27.2002H31.5699V24.4015H11.9693V27.2002H7.76907V20.2013H4.96888V27.2002H0.768555V16.0008H4.96888V11.8012H7.76907V9.00027H11.9694V4.80068H16.169V9.00027H27.3698V4.80068H31.5701V9.00027H34.3688V11.8012H38.5691V16.0008H42.7686V20.2011V27.2001H38.569V27.2002ZM16.1689 11.8013H11.9693V16.0009H16.1689V11.8013ZM31.57 11.8013H27.3697V16.0009H31.57V11.8013ZM23.1694 31.3996V27.2001H31.57V31.3996H23.1694ZM20.3692 31.3996H11.9693V27.2001H20.3692V31.3996H20.3692ZM7.76907 0.600433H11.9694V4.80068L7.76907 4.80076V0.600433ZM35.7696 0.600433V4.80076H31.57V0.600433H35.7696Z" fill="black"/>
</g>
</svg>
