<svg width="62" height="61" viewBox="0 0 62 61" fill="none" xmlns="http://www.w3.org/2000/svg">
<g id="Social Icons">
<path id="Vector" fill-rule="evenodd" clip-rule="evenodd" d="M0.88916 29.5848C0.88916 12.5888 14.21 0 31.389 0C48.568 0 61.8888 12.5964 61.8888 29.5925C61.8888 46.5885 48.568 59.1773 31.389 59.1773C28.3009 59.1773 25.3424 58.7655 22.5593 58.003C22.0179 57.8582 21.4384 57.8963 20.9275 58.125L14.8733 60.7938C14.5077 60.9551 14.108 61.0241 13.7094 60.9947C13.3109 60.9654 12.9256 60.8386 12.5875 60.6255C12.2494 60.4124 11.9689 60.1195 11.7705 59.7726C11.5721 59.4257 11.4619 59.0354 11.4497 58.6359L11.282 53.2069C11.2667 52.5359 10.9617 51.9107 10.4661 51.4684C4.53389 46.1615 0.88916 38.4755 0.88916 29.5848ZM22.0332 24.0262L13.0739 38.2392C12.2122 39.604 13.8897 41.1366 15.1707 40.1606L24.7934 32.8559C25.11 32.6155 25.4964 32.4846 25.894 32.4833C26.2915 32.4819 26.6788 32.61 26.997 32.8483L34.1264 38.1934C34.632 38.5732 35.211 38.844 35.8266 38.9887C36.4422 39.1335 37.0811 39.149 37.7031 39.0344C38.325 38.9197 38.9164 38.6774 39.4399 38.3227C39.9635 37.9679 40.4078 37.5085 40.7448 36.9734L49.7118 22.7681C50.5658 21.4033 48.8883 19.863 47.6073 20.839L37.9846 28.1437C37.668 28.3842 37.2817 28.515 36.8841 28.5164C36.4865 28.5178 36.0993 28.3896 35.781 28.1513L28.6517 22.8062C28.146 22.4265 27.5671 22.1557 26.9514 22.0109C26.3358 21.8662 25.6969 21.8506 25.075 21.9653C24.453 22.0799 23.8616 22.3223 23.3381 22.677C22.8145 23.0317 22.3702 23.4911 22.0332 24.0262Z" fill="#2E282A"/>
</g>
</svg>
