<svg width="116" height="115" viewBox="0 0 116 115" fill="none" xmlns="http://www.w3.org/2000/svg">
<path id="Vector" d="M23 74.1667C13.7432 77.6961 8 82.6139 8 88.0539C8 98.7939 30.3858 107.5 58 107.5C85.6144 107.5 108 98.7939 108 88.0539C108 82.6139 102.257 77.6961 93 74.1667M58 40.8333H58.0556M91.3333 40.8333C91.3333 63.4094 66.3333 74.1667 58 90.8333C49.6667 74.1667 24.6667 63.4094 24.6667 40.8333C24.6667 22.4238 39.5905 7.5 58 7.5C76.4094 7.5 91.3333 22.4238 91.3333 40.8333ZM63.5556 40.8333C63.5556 43.9016 61.0683 46.3889 58 46.3889C54.9317 46.3889 52.4444 43.9016 52.4444 40.8333C52.4444 37.7651 54.9317 35.2778 58 35.2778C61.0683 35.2778 63.5556 37.7651 63.5556 40.8333Z" stroke="black" stroke-width="15" stroke-linecap="round" stroke-linejoin="round"/>
</svg>
