<svg width="62" height="61" viewBox="0 0 62 61" fill="none" xmlns="http://www.w3.org/2000/svg">
<g id="Social Icons" clip-path="url(#clip0_4164_74)">
<path id="Vector" fill-rule="evenodd" clip-rule="evenodd" d="M61.5553 30.5008C61.5553 47.3454 47.9001 61.0006 31.0555 61.0006C14.2109 61.0006 0.555664 47.3454 0.555664 30.5008C0.555664 13.6562 14.2109 0.000976562 31.0555 0.000976562C47.9001 0.000976562 61.5553 13.6562 61.5553 30.5008ZM32.1485 22.5173C29.1819 23.7512 23.253 26.305 14.3616 30.1788C12.9178 30.753 12.1615 31.3147 12.0926 31.8639C11.9763 32.7921 13.1386 33.1576 14.7215 33.6553C14.9368 33.723 15.1599 33.7931 15.3886 33.8675C16.9459 34.3737 19.0407 34.9659 20.1297 34.9894C21.1175 35.0108 22.22 34.6035 23.4372 33.7677C31.7447 28.1599 36.033 25.3255 36.3022 25.2644C36.4922 25.2213 36.7554 25.1671 36.9337 25.3256C37.1121 25.4841 37.0945 25.7843 37.0756 25.8648C36.9605 26.3557 32.3978 30.5976 30.0366 32.7928C29.3005 33.4771 28.7784 33.9626 28.6716 34.0734C28.4325 34.3218 28.1888 34.5567 27.9546 34.7825C26.5079 36.1771 25.423 37.223 28.0147 38.9309C29.2602 39.7517 30.2568 40.4304 31.2511 41.1075C32.3369 41.8469 33.42 42.5845 34.8212 43.503C35.1782 43.7371 35.5192 43.9801 35.8513 44.2169C37.115 45.1178 38.2503 45.9271 39.6528 45.7981C40.4678 45.7231 41.3097 44.9567 41.7372 42.6711C42.7476 37.2696 44.7337 25.5661 45.1927 20.7433C45.2329 20.3208 45.1823 19.78 45.1417 19.5427C45.1011 19.3053 45.0162 18.9671 44.7076 18.7167C44.3422 18.4202 43.7781 18.3576 43.5258 18.3621C42.3786 18.3823 40.6186 18.9943 32.1485 22.5173Z" fill="#2E282A"/>
</g>
<defs>
<clipPath id="clip0_4164_74">
<rect width="60.9996" height="60.9996" fill="white" transform="translate(0.555664 0.000976562)"/>
</clipPath>
</defs>
</svg>
