<svg width="41" height="40" viewBox="0 0 41 40" fill="none" xmlns="http://www.w3.org/2000/svg">
<g id="Vector">
<mask id="path-1-inside-1_4247_584" fill="white">
<path d="M20.6462 39.82C20.6395 39.7133 20.5995 39.6267 20.5661 39.6133C20.526 39.6 20.4993 39.52 20.4993 39.4333C20.4993 39.3467 20.4726 39.2533 20.4325 39.2333C20.3991 39.2133 20.3524 39.0467 20.3257 38.8667C20.299 38.68 20.2589 38.5333 20.2255 38.5333C20.1921 38.5333 20.1654 38.4733 20.1654 38.3933C20.1654 38.32 20.1387 38.2733 20.112 38.2933C20.0853 38.3067 20.0519 38.2467 20.0452 38.1467C20.0385 38.0533 19.9985 37.94 19.9651 37.9067C19.925 37.8667 19.8983 37.7867 19.8983 37.72C19.8983 37.6533 19.8716 37.6 19.8382 37.6C19.8048 37.6 19.7581 37.4667 19.738 37.3C19.7113 37.1333 19.6646 37 19.6245 37C19.5911 37 19.5644 36.9267 19.5644 36.84C19.5644 36.7467 19.5377 36.6533 19.4976 36.6333C19.4642 36.6133 19.4309 36.52 19.4309 36.4267C19.4309 36.34 19.4108 36.2667 19.3774 36.2667C19.304 36.2667 19.1771 35.94 19.1237 35.62C19.097 35.46 19.0569 35.3333 19.0235 35.3333C18.9901 35.3333 18.9634 35.2467 18.9634 35.1333C18.9634 35.0267 18.9367 34.9333 18.8966 34.9333C18.8632 34.9333 18.8299 34.86 18.8299 34.7667C18.8299 34.6733 18.8031 34.6 18.7631 34.6C18.7297 34.6 18.6963 34.54 18.6963 34.4667C18.6963 34.3933 18.6696 34.3333 18.6362 34.3333C18.6028 34.3333 18.5561 34.1867 18.5294 34C18.5026 33.82 18.4559 33.6667 18.4225 33.6667C18.3891 33.6667 18.3624 33.58 18.3624 33.4667C18.3624 33.36 18.3357 33.2667 18.2956 33.2667C18.2622 33.2667 18.2289 33.22 18.2289 33.1667C18.2289 33.1133 18.2021 33.0667 18.1621 33.0667C18.1287 33.0667 18.0953 32.98 18.0953 32.8733C18.0953 32.76 18.0686 32.66 18.0352 32.64C18.0018 32.6133 17.9551 32.48 17.9284 32.3333C17.9016 32.1867 17.8616 32.0667 17.8349 32.0667C17.8082 32.0667 17.7814 32 17.7814 31.92C17.7748 31.8333 17.7347 31.76 17.6946 31.7467C17.6612 31.7333 17.6279 31.6533 17.6279 31.5667C17.6279 31.48 17.6011 31.3867 17.5611 31.3667C17.5277 31.3467 17.4943 31.2533 17.4943 31.16C17.4943 31.0733 17.4676 31 17.4275 31C17.3941 31 17.3474 30.8533 17.3207 30.6667C17.294 30.4667 17.2472 30.3533 17.2072 30.38C17.1738 30.4 17.1604 30.3933 17.1804 30.3533C17.2005 30.32 17.1738 30.2067 17.1203 30.1067C17.0736 30 17.0269 29.86 17.0269 29.7933C17.0269 29.72 17.0001 29.6667 16.9601 29.6667C16.9267 29.6667 16.8933 29.5933 16.8933 29.5067C16.8933 29.4133 16.8666 29.3267 16.8332 29.3067C16.7998 29.28 16.7531 29.1467 16.7263 29C16.6996 28.8533 16.6596 28.7333 16.6395 28.7333C16.5861 28.7333 16.4258 28.2533 16.4258 28.1C16.4258 28.0467 16.4058 28 16.3791 28C16.3457 28 16.2923 27.9267 16.2455 27.8333C16.2055 27.74 16.1988 27.68 16.2322 27.7C16.2589 27.72 16.2455 27.6533 16.1921 27.5533C16.1387 27.4533 16.092 27.3 16.092 27.22C16.092 27.1333 16.0652 27.0667 16.0252 27.0667C15.9918 27.0667 15.9584 26.98 15.9584 26.8667C15.9584 26.76 15.9317 26.6667 15.8916 26.6667C15.8582 26.6667 15.8248 26.5933 15.8248 26.5C15.8248 26.4067 15.7981 26.3333 15.7581 26.3333C15.7247 26.3333 15.6913 26.2733 15.6913 26.2067C15.6913 26.1333 15.6646 26.06 15.6312 26.04C15.5978 26.0133 15.5511 25.8733 15.5243 25.72C15.4709 25.4 15.3641 25.2667 15.1637 25.2667C15.0836 25.2667 15.0235 25.24 15.0235 25.2C15.0235 25.1667 14.9367 25.1333 14.8299 25.1333C14.723 25.1333 14.6228 25.1 14.6095 25.06C14.5961 25.0267 14.4626 24.9733 14.3023 24.9533C14.1487 24.9333 14.0218 24.8867 14.0218 24.86C14.0218 24.8267 13.9484 24.8 13.8549 24.8C13.7614 24.8 13.688 24.7733 13.688 24.7333C13.688 24.7 13.6011 24.6667 13.4876 24.6667C13.3808 24.6667 13.2873 24.64 13.2873 24.6C13.2873 24.5667 13.2405 24.5333 13.1871 24.5333C13.1337 24.5333 13.087 24.5067 13.087 24.4733C13.087 24.4267 12.7597 24.3467 12.4392 24.32C12.3925 24.3133 12.3524 24.2867 12.3524 24.2533C12.3524 24.2267 12.2789 24.2 12.1854 24.2C12.092 24.2 12.0185 24.1733 12.0185 24.1333C12.0185 24.1 11.925 24.0667 11.8115 24.0667C11.698 24.0667 11.6245 24.04 11.6512 24C11.6713 23.9667 11.6312 23.9333 11.5577 23.9333C11.4776 23.9333 11.4175 23.9067 11.4175 23.8733C11.4175 23.84 11.2506 23.7867 11.0502 23.7667C10.8499 23.74 10.6829 23.6933 10.6829 23.66C10.6829 23.6267 10.6028 23.6 10.5093 23.6C10.4158 23.6 10.3557 23.5733 10.3824 23.5333C10.4092 23.4933 10.3491 23.4667 10.2556 23.4667C10.1621 23.4667 10.0819 23.44 10.0819 23.4C10.0819 23.3667 10.0085 23.3333 9.915 23.3333C9.82151 23.3333 9.74805 23.3067 9.74805 23.2733C9.74805 23.24 9.58111 23.1933 9.38077 23.1667C9.18044 23.1467 9.01349 23.0933 9.01349 23.06C9.01349 23.0267 8.95339 23 8.87994 23C8.80648 23 8.74638 22.9733 8.74638 22.9333C8.74638 22.9 8.67293 22.8667 8.57944 22.8667C8.48595 22.8667 8.41249 22.84 8.41249 22.8C8.41249 22.7667 8.32568 22.7333 8.21216 22.7333C8.10531 22.7333 8.01183 22.7067 8.01183 22.6733C8.01183 22.64 7.88495 22.6 7.73136 22.5733C7.40415 22.52 7.07693 22.3933 7.07693 22.32C7.07693 22.2867 7.00348 22.2667 6.91667 22.2667C6.82318 22.2667 6.72969 22.24 6.70965 22.2C6.68962 22.1667 6.60949 22.1333 6.53603 22.1333C6.46925 22.1333 6.40915 22.1067 6.40915 22.0667C6.40915 22.0333 6.26224 21.9867 6.07526 21.96C5.89496 21.9333 5.74137 21.8933 5.74137 21.86C5.74137 21.8267 5.66792 21.8 5.57443 21.8C5.48094 21.8 5.40748 21.7733 5.40748 21.7333C5.40748 21.7 5.34738 21.6667 5.27393 21.6667C5.20047 21.6667 5.07359 21.6333 4.98678 21.5867C4.68628 21.4333 4.6195 21.4067 4.3791 21.3667C4.24555 21.34 4.11867 21.2933 4.09864 21.26C4.0786 21.2267 3.99179 21.2 3.8983 21.2C3.81149 21.2 3.73804 21.1733 3.73804 21.1333C3.73804 21.1 3.64455 21.0667 3.53102 21.0667C3.4175 21.0667 3.34405 21.04 3.37076 21C3.39079 20.9667 3.35072 20.9333 3.27727 20.9333C3.19713 20.9333 3.13703 20.9067 3.13703 20.8733C3.13703 20.84 2.9968 20.7933 2.82985 20.7667C2.65623 20.74 2.46258 20.6933 2.3958 20.66C2.32234 20.6267 2.20882 20.5733 2.13536 20.5333C2.06191 20.4933 1.95506 20.4667 1.90164 20.4667C1.84822 20.4667 1.80147 20.44 1.80147 20.4067C1.80147 20.3733 1.68795 20.3333 1.54772 20.3067C1.11366 20.24 0.799805 20.08 0.799805 19.9333C0.799805 19.7867 1.02685 19.6667 1.30732 19.6667C1.39413 19.6667 1.46758 19.64 1.46758 19.6C1.46758 19.5667 1.54104 19.5333 1.62785 19.5333C1.71466 19.5333 1.80147 19.5 1.81483 19.4667C1.82819 19.4267 1.90164 19.3867 1.98845 19.38C2.06859 19.38 2.13536 19.3467 2.13536 19.32C2.13536 19.2933 2.19546 19.2667 2.26892 19.2667C2.34238 19.2667 2.40248 19.24 2.40248 19.2133C2.40248 19.18 2.44254 19.1533 2.48929 19.1467C2.80982 19.12 3.13703 19.04 3.13703 18.9933C3.13703 18.96 3.21049 18.9333 3.30398 18.9333C3.39747 18.9333 3.47092 18.9067 3.47092 18.8667C3.47092 18.8333 3.53102 18.8 3.5978 18.8C3.67126 18.8 3.75139 18.7733 3.77142 18.7333C3.79146 18.7 3.87159 18.6667 3.94505 18.6667C4.01182 18.6667 4.07192 18.64 4.07192 18.6067C4.07192 18.5733 4.23887 18.52 4.4392 18.5C4.63954 18.4733 4.80648 18.4267 4.80648 18.3933C4.80648 18.36 4.87994 18.3333 4.97343 18.3333C5.06692 18.3333 5.14037 18.3067 5.14037 18.2667C5.14037 18.2333 5.20047 18.2 5.27393 18.2C5.34738 18.2 5.40748 18.1733 5.40748 18.1333C5.40748 18.1 5.48094 18.0667 5.57443 18.0667C5.66792 18.0667 5.74137 18.04 5.74137 18.0067C5.74137 17.9733 5.88829 17.9333 6.07526 17.9067C6.25556 17.88 6.40915 17.8333 6.40915 17.8C6.40915 17.76 6.46925 17.7333 6.53603 17.7333C6.60949 17.7333 6.68962 17.7067 6.70965 17.6667C6.72969 17.6333 6.82318 17.6 6.91667 17.6C7.00348 17.6 7.07693 17.5733 7.07693 17.5333C7.07693 17.5 7.15039 17.4667 7.2372 17.4667C7.32401 17.4667 7.41082 17.44 7.42418 17.4067C7.43753 17.3733 7.56441 17.3267 7.71132 17.3067C7.85824 17.28 7.99179 17.2333 7.99847 17.2C8.01183 17.16 8.11199 17.1333 8.21884 17.1333C8.32568 17.1333 8.41249 17.1067 8.41249 17.0667C8.41249 17.0333 8.48595 17 8.57944 17C8.67293 17 8.74638 16.9733 8.74638 16.9333C8.74638 16.9 8.80648 16.8667 8.87994 16.8667C8.95339 16.8667 9.01349 16.84 9.01349 16.8067C9.01349 16.7733 9.14705 16.7267 9.314 16.7067C9.48094 16.68 9.69463 16.62 9.7948 16.5667C9.89496 16.5133 9.99513 16.4867 10.0285 16.5067C10.0552 16.5267 10.0819 16.5133 10.0819 16.48C10.0819 16.4467 10.2088 16.38 10.3691 16.3333C10.5227 16.28 10.6829 16.22 10.7163 16.1933C10.7564 16.1667 10.8966 16.1267 11.0369 16.1C11.1704 16.0733 11.2839 16.02 11.2839 15.9733C11.2839 15.9333 11.3173 15.9467 11.3507 16C11.3841 16.0533 11.4175 16.0667 11.4175 16.0267C11.4175 15.98 11.5511 15.9067 11.718 15.86C11.8849 15.8133 12.0185 15.7467 12.0185 15.72C12.0185 15.6933 12.092 15.6667 12.1788 15.6667C12.2723 15.6667 12.3657 15.64 12.3858 15.6C12.4058 15.5667 12.5728 15.52 12.7531 15.4933C12.94 15.4667 13.087 15.4267 13.087 15.3933C13.087 15.36 13.1337 15.3333 13.1871 15.3333C13.2405 15.3333 13.2873 15.3067 13.2873 15.2667C13.2873 15.2333 13.3808 15.2 13.4876 15.2C13.6011 15.2 13.688 15.1733 13.688 15.14C13.688 15.1067 13.8215 15.06 13.9885 15.04C14.1554 15.0133 14.289 14.9667 14.289 14.9267C14.289 14.8933 14.3624 14.8667 14.4559 14.8667C14.5494 14.8667 14.6228 14.84 14.6228 14.8C14.6228 14.7667 14.7163 14.7333 14.8232 14.7333C14.9367 14.7333 15.0235 14.7067 15.0235 14.6667C15.0235 14.6333 15.0836 14.6 15.1637 14.6C15.2372 14.6 15.3374 14.56 15.3841 14.5133C15.4642 14.4333 15.5978 13.9667 15.5711 13.8467C15.5644 13.82 15.5911 13.8 15.6245 13.8C15.6646 13.8 15.6913 13.7067 15.6913 13.5933C15.6913 13.48 15.718 13.4067 15.7581 13.4333C15.7981 13.4533 15.8248 13.4133 15.8248 13.34C15.8248 13.26 15.8582 13.2 15.8916 13.2C15.9317 13.2 15.9584 13.1133 15.9584 13C15.9584 12.8933 15.9851 12.8 16.0185 12.8C16.0519 12.8 16.0986 12.68 16.1253 12.5333C16.1521 12.3867 16.1988 12.2533 16.2322 12.2267C16.2656 12.2067 16.2923 12.12 16.2923 12.0267C16.2923 11.94 16.3257 11.8667 16.3591 11.8667C16.3991 11.8667 16.4258 11.7933 16.4258 11.7C16.4258 11.6067 16.4592 11.5333 16.4926 11.5333C16.5327 11.5333 16.5594 11.4467 16.5594 11.3333C16.5594 11.2267 16.5861 11.1333 16.6195 11.1333C16.6529 11.1333 16.6996 11.0067 16.7263 10.8533C16.7597 10.6933 16.7864 10.5533 16.7931 10.5333C16.8065 10.5133 16.8332 10.4333 16.8599 10.3533C16.8866 10.2667 16.9334 10.2 16.9667 10.2C17.0001 10.2 17.0269 10.1267 17.0269 10.04C17.0269 9.94667 17.0602 9.85333 17.0936 9.83333C17.1337 9.81333 17.1604 9.72 17.1604 9.62667C17.1604 9.54 17.1871 9.46667 17.2205 9.46667C17.2606 9.46667 17.3073 9.33333 17.334 9.16667C17.3541 9 17.4008 8.86667 17.4342 8.86667C17.4676 8.86667 17.4943 8.79333 17.4943 8.7C17.4943 8.60667 17.5277 8.53333 17.5611 8.53333C17.6011 8.53333 17.6279 8.44667 17.6279 8.33333C17.6279 8.22667 17.6612 8.13333 17.6946 8.13333C17.7347 8.13333 17.7614 8.08667 17.7614 8.03333C17.7614 7.98 17.7881 7.93333 17.8215 7.93333C17.8549 7.93333 17.895 7.78667 17.9217 7.6C17.9484 7.42 17.9951 7.25333 18.0285 7.23333C18.0686 7.21333 18.0953 7.1 18.0953 6.99333C18.0953 6.87333 18.122 6.80667 18.1621 6.83333C18.1955 6.85333 18.2289 6.81333 18.2289 6.74C18.2289 6.66 18.2622 6.6 18.2956 6.6C18.3357 6.6 18.3624 6.51333 18.3624 6.4C18.3624 6.29333 18.3958 6.2 18.4292 6.2C18.4693 6.2 18.496 6.14667 18.496 6.08667C18.496 5.93333 18.7163 5.30667 18.7831 5.28C18.8098 5.26667 18.8299 5.18 18.8299 5.09333C18.8299 5.00667 18.8632 4.93333 18.8966 4.93333C18.9367 4.93333 18.9634 4.86 18.9634 4.76667C18.9634 4.67333 18.9901 4.6 19.0235 4.6C19.0569 4.6 19.1036 4.46667 19.1237 4.3C19.1504 4.14 19.1971 3.98667 19.2372 3.96667C19.2706 3.94 19.2973 3.85333 19.2973 3.76C19.2973 3.67333 19.3307 3.6 19.3641 3.6C19.4041 3.6 19.4309 3.52667 19.4309 3.43333C19.4309 3.34 19.4642 3.26667 19.4976 3.26667C19.5377 3.26667 19.5644 3.18 19.5644 3.06667C19.5644 2.96 19.5911 2.86667 19.6312 2.86667C19.6646 2.86667 19.718 2.74667 19.738 2.6C19.7647 2.45333 19.8115 2.31333 19.8382 2.29333C19.8716 2.27333 19.8983 2.18667 19.8983 2.09333C19.8983 2.00667 19.9317 1.93333 19.9651 1.93333C20.0051 1.93333 20.0319 1.84667 20.0319 1.73333C20.0319 1.62667 20.0652 1.53333 20.0986 1.53333C20.1387 1.53333 20.1654 1.49333 20.1654 1.44C20.1654 1.39333 20.2122 1.26 20.2656 1.16C20.319 1.05333 20.3657 0.886667 20.3657 0.786667C20.3657 0.68 20.3991 0.6 20.4325 0.6C20.4726 0.6 20.4993 0.526667 20.4993 0.433333C20.4993 0.34 20.5327 0.266667 20.5661 0.266667C20.6061 0.266667 20.6329 0.206667 20.6329 0.133333C20.6329 0.0333333 20.6796 0 20.7998 0C20.92 0 20.9668 0.0333333 20.9668 0.133333C20.9668 0.206667 21.0001 0.266667 21.0335 0.266667C21.0736 0.266667 21.1003 0.34 21.1003 0.433333C21.1003 0.526667 21.1337 0.6 21.1671 0.6C21.2072 0.6 21.2339 0.693333 21.2339 0.8C21.2339 0.913333 21.2606 1 21.2873 1C21.3541 1 21.5678 1.58667 21.5678 1.78667C21.5678 1.86667 21.6011 1.93333 21.6345 1.93333C21.6746 1.93333 21.7013 2.00667 21.7013 2.1C21.7013 2.19333 21.7347 2.26667 21.7681 2.26667C21.8082 2.26667 21.8349 2.32 21.8349 2.39333C21.8349 2.46 21.8816 2.60667 21.935 2.70667C21.9885 2.81333 22.0352 2.98 22.0352 3.08667C22.0352 3.18667 22.0686 3.26667 22.102 3.26667C22.142 3.26667 22.1688 3.34 22.1688 3.43333C22.1688 3.52667 22.2021 3.6 22.2355 3.6C22.2756 3.6 22.3023 3.66 22.3023 3.72667C22.3023 3.8 22.3357 3.88 22.3691 3.9C22.4092 3.92 22.4359 4 22.4359 4.07333C22.4359 4.14 22.4626 4.2 22.496 4.2C22.5294 4.2 22.5828 4.36667 22.6028 4.56667C22.6295 4.76667 22.6763 4.93333 22.7097 4.93333C22.743 4.93333 22.7698 5.00667 22.7698 5.1C22.7698 5.19333 22.8031 5.26667 22.8365 5.26667C22.8766 5.26667 22.9033 5.32667 22.9033 5.4C22.9033 5.47333 22.9367 5.53333 22.9701 5.53333C23.0102 5.53333 23.0369 5.60667 23.0369 5.7C23.0369 5.79333 23.0636 5.86667 23.097 5.86667C23.1304 5.86667 23.1771 6.03333 23.2038 6.23333C23.2238 6.43333 23.2773 6.6 23.3107 6.6C23.344 6.6 23.3708 6.66 23.3708 6.73333C23.3708 6.80667 23.4041 6.86667 23.4375 6.86667C23.4776 6.86667 23.5043 6.94 23.5043 7.03333C23.5043 7.12667 23.5377 7.2 23.5711 7.2C23.6112 7.2 23.6379 7.27333 23.6379 7.36C23.6379 7.45333 23.6646 7.54 23.698 7.56C23.7247 7.58 23.7714 7.72 23.7981 7.86667C23.8182 8.01333 23.8716 8.13333 23.905 8.13333C23.945 8.13333 23.9718 8.22667 23.9718 8.33333C23.9718 8.44667 24.0051 8.53333 24.0385 8.53333C24.0786 8.53333 24.1053 8.60667 24.1053 8.7C24.1053 8.79333 24.1387 8.86667 24.1721 8.86667C24.2122 8.86667 24.2389 8.94 24.2389 9.03333C24.2389 9.12667 24.2656 9.2 24.3056 9.2C24.339 9.2 24.3858 9.34667 24.4125 9.53333C24.4392 9.71333 24.4793 9.86667 24.5127 9.86667C24.546 9.86667 24.5728 9.94 24.5728 10.0333C24.5728 10.1267 24.6061 10.2 24.6395 10.2C24.6796 10.2 24.7063 10.2733 24.7063 10.3667C24.7063 10.46 24.7397 10.5333 24.7731 10.5333C24.8132 10.5333 24.8399 10.5933 24.8399 10.6667C24.8399 10.74 24.8666 10.8 24.9 10.8C24.9334 10.8 24.9801 10.9667 25.0068 11.1667C25.0268 11.3667 25.0803 11.5333 25.1137 11.5333C25.1471 11.5333 25.1738 11.6067 25.1738 11.7C25.1738 11.7933 25.2072 11.8667 25.2405 11.8667C25.2806 11.8667 25.3073 11.9467 25.3073 12.04C25.3073 12.1333 25.334 12.1933 25.3741 12.1667C25.4142 12.1467 25.4409 12.2 25.4409 12.2933C25.4409 12.3867 25.4676 12.48 25.5077 12.5C25.541 12.52 25.5878 12.6867 25.6145 12.8667C25.6412 13.0533 25.6813 13.2 25.7147 13.2C25.7481 13.2 25.7748 13.2733 25.7748 13.3667C25.7748 13.46 25.8082 13.5333 25.8415 13.5333C25.8816 13.5333 25.9083 13.5933 25.9083 13.66C25.9083 13.7333 25.9417 13.8133 25.9751 13.8333C26.0085 13.8533 26.0419 13.9333 26.0419 14.0067C26.0419 14.0733 26.0753 14.1333 26.1087 14.1333C26.1487 14.1333 26.1754 14.1933 26.1754 14.26C26.1754 14.4867 26.2556 14.6 26.4092 14.6C26.496 14.6 26.5895 14.6333 26.6095 14.6667C26.6295 14.7067 26.723 14.7333 26.8165 14.7333C26.9033 14.7333 26.9768 14.7667 26.9768 14.8C26.9768 14.84 27.0369 14.8667 27.1103 14.8667C27.1838 14.8667 27.2439 14.8933 27.2439 14.9333C27.2439 14.9667 27.2639 14.9933 27.2973 14.9933C27.4108 14.9667 27.9117 15.0867 27.9117 15.14C27.9117 15.1733 28.0051 15.2 28.112 15.2C28.2255 15.2 28.3123 15.2333 28.3123 15.2667C28.3123 15.3067 28.3724 15.3333 28.4459 15.3333C28.5193 15.3333 28.5794 15.3667 28.5794 15.4C28.5794 15.44 28.6529 15.4667 28.7464 15.4667C28.8399 15.4667 28.9133 15.4933 28.9133 15.5267C28.9133 15.5533 28.9868 15.5667 29.0803 15.5467C29.1804 15.5333 29.2472 15.5467 29.2472 15.5933C29.2472 15.6333 29.3207 15.6667 29.4142 15.6667C29.5077 15.6667 29.5811 15.7 29.5811 15.7333C29.5811 15.7733 29.6546 15.8 29.7481 15.8C29.8415 15.8 29.915 15.8333 29.915 15.8667C29.915 15.9067 29.9885 15.9333 30.0819 15.9333C30.1754 15.9333 30.2489 15.96 30.2489 15.9933C30.2489 16.04 30.5026 16.1067 30.8632 16.16C30.8833 16.1667 30.93 16.1867 30.9567 16.2133C30.9834 16.2467 31.0769 16.2667 31.1637 16.2667C31.2439 16.2667 31.3173 16.3 31.3173 16.3333C31.3173 16.3733 31.3641 16.4 31.4175 16.4C31.4709 16.4 31.5177 16.4333 31.5177 16.4667C31.5177 16.5067 31.6112 16.5333 31.718 16.5333C31.8315 16.5333 31.9183 16.5667 31.9183 16.6C31.9183 16.64 31.9851 16.6667 32.0719 16.6733C32.2923 16.68 32.9334 16.9 32.8799 16.9533C32.8532 16.98 32.9267 17 33.0402 17C33.1604 17 33.2539 17.0333 33.2539 17.0667C33.2539 17.1067 33.3274 17.1333 33.4208 17.1333C33.5143 17.1333 33.5878 17.16 33.5878 17.1933C33.5878 17.2267 33.708 17.2733 33.8549 17.3C34.0018 17.3267 34.1354 17.3733 34.1621 17.4067C34.1821 17.44 34.2689 17.4667 34.3624 17.4667C34.4492 17.4667 34.5227 17.5 34.5227 17.5333C34.5227 17.5733 34.5828 17.6 34.6562 17.6C34.7297 17.6 34.8499 17.6333 34.9233 17.6667C34.9968 17.7067 35.117 17.76 35.1905 17.8C35.2572 17.8333 35.4375 17.8867 35.5911 17.9067C35.738 17.9333 35.8582 17.9733 35.8582 18.0067C35.8582 18.04 35.9117 18.0667 35.9851 18.0667C36.0519 18.0667 36.1921 18.1133 36.299 18.16C36.3991 18.2133 36.5127 18.24 36.5461 18.22C36.5861 18.2 36.5928 18.2133 36.5661 18.2533C36.5327 18.3067 36.5861 18.3333 36.7264 18.3333C36.8399 18.3333 36.92 18.36 36.9 18.3933C36.8799 18.4267 36.9868 18.4733 37.1404 18.4933C37.294 18.52 37.4542 18.5667 37.501 18.6C37.541 18.64 37.6546 18.6733 37.7547 18.68C37.8482 18.6867 37.9284 18.72 37.9284 18.7467C37.9284 18.7733 37.9751 18.8 38.0285 18.8C38.0819 18.8 38.1287 18.8267 38.1287 18.8533C38.1287 18.88 38.2088 18.9133 38.309 18.92C38.4092 18.9267 38.5026 18.96 38.5227 18.9933C38.5627 19.0467 39.0502 19.1667 39.1504 19.1467C39.1771 19.14 39.1971 19.1667 39.1971 19.2C39.1971 19.24 39.2706 19.2667 39.3641 19.2667C39.4576 19.2667 39.531 19.3 39.531 19.3333C39.531 19.3733 39.6112 19.4 39.7046 19.4C39.7981 19.4 39.8582 19.4267 39.8315 19.4667C39.8048 19.5067 39.8783 19.5333 39.9918 19.5333C40.1053 19.5333 40.1988 19.56 40.1988 19.5933C40.1988 19.6267 40.3324 19.6733 40.4993 19.6933C40.7798 19.74 40.7998 19.7533 40.7998 19.94C40.7998 20.0867 40.7664 20.1333 40.6729 20.1333C40.5995 20.1333 40.526 20.16 40.4993 20.1933C40.4793 20.2333 40.319 20.28 40.1454 20.3067C39.9718 20.3333 39.8182 20.3733 39.7981 20.3933C39.7247 20.48 39.4576 20.6 39.3307 20.6C39.2572 20.6 39.1971 20.6267 39.1971 20.66C39.1971 20.6933 39.0502 20.74 38.8632 20.7667C38.6829 20.7933 38.5294 20.84 38.5294 20.8733C38.5294 20.9067 38.4425 20.9333 38.329 20.9333C38.2222 20.9333 38.1287 20.9667 38.1287 21C38.1287 21.04 38.0686 21.0667 37.9885 21.0667C37.915 21.0667 37.8749 21.1 37.895 21.1333C37.9217 21.1733 37.8482 21.2 37.7347 21.2C37.6212 21.2 37.5277 21.2267 37.5277 21.26C37.5277 21.2933 37.3808 21.34 37.1938 21.3667C37.0135 21.3933 36.8599 21.4333 36.8599 21.46C36.8599 21.4867 36.713 21.5533 36.526 21.6C36.3457 21.6467 36.1921 21.7133 36.1921 21.7467C36.1921 21.7733 36.1187 21.8 36.0252 21.8C35.9317 21.8 35.8582 21.8267 35.8582 21.86C35.8582 21.8933 35.738 21.9333 35.5911 21.96C35.4442 21.98 35.2172 22.06 35.0903 22.1333C34.9567 22.2067 34.7764 22.2667 34.6896 22.2667C34.5961 22.2667 34.5227 22.3 34.5227 22.3333C34.5227 22.3733 34.4492 22.4 34.3557 22.4C34.2622 22.4 34.1888 22.4267 34.1888 22.46C34.1888 22.4933 34.0552 22.54 33.8883 22.56C33.7213 22.5867 33.5878 22.6333 33.5878 22.6733C33.5878 22.7067 33.5143 22.7333 33.4275 22.7333C33.334 22.7333 33.2405 22.7667 33.2205 22.8C33.2005 22.84 33.107 22.8667 33.0135 22.8667C32.9267 22.8667 32.8532 22.8867 32.8532 22.92C32.8532 22.9933 32.526 23.12 32.1988 23.1733C32.0452 23.2 31.8983 23.2467 31.8783 23.2733C31.8582 23.3067 31.7714 23.3333 31.6779 23.3333C31.5911 23.3333 31.5177 23.3667 31.5177 23.4C31.5177 23.44 31.4709 23.4667 31.4175 23.4667C31.3641 23.4667 31.3173 23.4933 31.3173 23.52C31.3173 23.5467 31.2372 23.58 31.137 23.5867C31.0369 23.5933 30.9434 23.6267 30.9233 23.66C30.9033 23.6933 30.743 23.74 30.5694 23.7667C30.3891 23.7933 30.2489 23.84 30.2489 23.8733C30.2489 23.9067 30.1888 23.9333 30.1153 23.9333C30.0419 23.9333 29.9818 23.96 29.9818 23.9867C29.9818 24.0133 29.9016 24.0467 29.8015 24.0533C29.6946 24.06 29.6078 24.1 29.5945 24.1333C29.5811 24.1733 29.501 24.2 29.4142 24.2C29.3274 24.2 29.2405 24.2267 29.2205 24.26C29.2005 24.2933 29.0669 24.34 28.9334 24.36C28.6262 24.42 28.3123 24.5467 28.3123 24.6133C28.3123 24.6467 28.2255 24.6667 28.112 24.6667C28.0051 24.6667 27.9117 24.7 27.9117 24.7333C27.9117 24.7733 27.8449 24.8 27.7581 24.8C27.6713 24.8 27.5711 24.8333 27.531 24.8733C27.491 24.9133 27.3574 24.96 27.2372 24.98C27.1103 24.9933 27.0035 25.04 26.9901 25.0733C26.9768 25.1067 26.8966 25.1333 26.8098 25.1333C26.723 25.1333 26.6295 25.1667 26.6095 25.2C26.5895 25.24 26.496 25.2667 26.4025 25.2667C26.2756 25.2667 26.2289 25.3067 26.1955 25.4667C26.1754 25.58 26.1287 25.6867 26.102 25.7067C26.0686 25.7267 26.0419 25.8133 26.0419 25.9067C26.0419 25.9933 26.0152 26.0667 25.9751 26.0667C25.9417 26.0667 25.9083 26.16 25.9083 26.2733C25.9083 26.3867 25.8816 26.46 25.8415 26.4333C25.8082 26.4133 25.7748 26.4533 25.7748 26.5267C25.7748 26.6067 25.7481 26.6667 25.7147 26.6667C25.6679 26.6667 25.5878 26.9867 25.5611 27.3133C25.5544 27.36 25.5277 27.38 25.4943 27.36C25.4676 27.34 25.4409 27.4 25.4409 27.4933C25.4409 27.5867 25.4142 27.6667 25.3741 27.6667C25.3407 27.6667 25.3073 27.74 25.3073 27.8333C25.3073 27.9267 25.2806 28 25.2405 28C25.2072 28 25.1738 28.0933 25.1738 28.2C25.1738 28.3133 25.1471 28.4 25.1137 28.4C25.0602 28.4 24.94 28.9 24.9667 29.02C24.9734 29.0533 24.9467 29.06 24.9067 29.0333C24.8666 29.0067 24.8399 29.06 24.8399 29.16C24.8399 29.2533 24.8132 29.3333 24.7731 29.3333C24.7397 29.3333 24.7063 29.4067 24.7063 29.5C24.7063 29.5933 24.6796 29.6667 24.6529 29.6667C24.6262 29.6667 24.5928 29.7467 24.5861 29.8467C24.5794 29.9467 24.546 30.04 24.5127 30.06C24.4793 30.08 24.4325 30.2267 24.4058 30.3867C24.3791 30.54 24.3324 30.6667 24.299 30.6667C24.2656 30.6667 24.2389 30.74 24.2389 30.8333C24.2389 30.9267 24.2122 31 24.1721 31C24.1387 31 24.1053 31.0933 24.1053 31.2C24.1053 31.3133 24.0786 31.4 24.0385 31.4C24.0051 31.4 23.9718 31.4733 23.9718 31.5667C23.9718 31.66 23.945 31.7333 23.905 31.7333C23.8716 31.7333 23.8182 31.8533 23.7981 32C23.7714 32.1467 23.7247 32.2867 23.698 32.3067C23.6646 32.3267 23.6379 32.4133 23.6379 32.5067C23.6379 32.5933 23.6112 32.6667 23.5711 32.6667C23.5377 32.6667 23.5043 32.76 23.5043 32.8733C23.5043 32.9867 23.4776 33.06 23.4375 33.0333C23.4041 33.0133 23.3708 33.0533 23.3708 33.1267C23.3708 33.2067 23.344 33.2667 23.3107 33.2667C23.2773 33.2667 23.2372 33.4133 23.2105 33.6C23.1838 33.78 23.137 33.9467 23.1036 33.9667C23.0636 33.9867 23.0369 34.08 23.0369 34.1733C23.0369 34.26 23.0102 34.3333 22.9701 34.3333C22.9367 34.3333 22.9033 34.4133 22.9033 34.5067C22.9033 34.6 22.8766 34.66 22.8365 34.6333C22.7965 34.6067 22.7698 34.6667 22.7698 34.76C22.7698 34.8533 22.743 34.9333 22.7097 34.9333C22.6763 34.9333 22.6362 35.08 22.6095 35.2667C22.5828 35.4467 22.536 35.6133 22.5026 35.6333C22.4626 35.6533 22.4359 35.7333 22.4359 35.8067C22.4359 35.8733 22.4092 35.9333 22.3691 35.9333C22.3357 35.9333 22.3023 36.0067 22.3023 36.1C22.3023 36.1933 22.2689 36.2667 22.2289 36.2667C22.1955 36.2667 22.1754 36.2933 22.1955 36.32C22.2155 36.3533 22.1821 36.46 22.1287 36.5667C22.0753 36.6667 22.0152 36.8667 21.9951 37.0067C21.9684 37.1533 21.9284 37.2667 21.895 37.2667C21.8616 37.2667 21.8349 37.34 21.8349 37.4333C21.8349 37.5267 21.8082 37.6 21.7681 37.6C21.7347 37.6 21.7013 37.6733 21.7013 37.7667C21.7013 37.86 21.6746 37.9333 21.6412 37.9333C21.6078 37.9333 21.5678 38.0533 21.541 38.2C21.501 38.4667 21.4743 38.5333 21.314 38.8467C21.2673 38.9333 21.2339 39.06 21.2339 39.1333C21.2339 39.2067 21.2072 39.2667 21.1671 39.2667C21.1337 39.2667 21.1003 39.34 21.1003 39.4333C21.1003 39.5267 21.0736 39.6 21.0335 39.6C21.0001 39.6 20.9668 39.6467 20.9668 39.7067C20.9668 39.8067 20.7931 39.9933 20.6996 40C20.6796 40 20.6529 39.92 20.6462 39.82Z"/>
</mask>
<path d="M20.6462 39.82C20.6395 39.7133 20.5995 39.6267 20.5661 39.6133C20.526 39.6 20.4993 39.52 20.4993 39.4333C20.4993 39.3467 20.4726 39.2533 20.4325 39.2333C20.3991 39.2133 20.3524 39.0467 20.3257 38.8667C20.299 38.68 20.2589 38.5333 20.2255 38.5333C20.1921 38.5333 20.1654 38.4733 20.1654 38.3933C20.1654 38.32 20.1387 38.2733 20.112 38.2933C20.0853 38.3067 20.0519 38.2467 20.0452 38.1467C20.0385 38.0533 19.9985 37.94 19.9651 37.9067C19.925 37.8667 19.8983 37.7867 19.8983 37.72C19.8983 37.6533 19.8716 37.6 19.8382 37.6C19.8048 37.6 19.7581 37.4667 19.738 37.3C19.7113 37.1333 19.6646 37 19.6245 37C19.5911 37 19.5644 36.9267 19.5644 36.84C19.5644 36.7467 19.5377 36.6533 19.4976 36.6333C19.4642 36.6133 19.4309 36.52 19.4309 36.4267C19.4309 36.34 19.4108 36.2667 19.3774 36.2667C19.304 36.2667 19.1771 35.94 19.1237 35.62C19.097 35.46 19.0569 35.3333 19.0235 35.3333C18.9901 35.3333 18.9634 35.2467 18.9634 35.1333C18.9634 35.0267 18.9367 34.9333 18.8966 34.9333C18.8632 34.9333 18.8299 34.86 18.8299 34.7667C18.8299 34.6733 18.8031 34.6 18.7631 34.6C18.7297 34.6 18.6963 34.54 18.6963 34.4667C18.6963 34.3933 18.6696 34.3333 18.6362 34.3333C18.6028 34.3333 18.5561 34.1867 18.5294 34C18.5026 33.82 18.4559 33.6667 18.4225 33.6667C18.3891 33.6667 18.3624 33.58 18.3624 33.4667C18.3624 33.36 18.3357 33.2667 18.2956 33.2667C18.2622 33.2667 18.2289 33.22 18.2289 33.1667C18.2289 33.1133 18.2021 33.0667 18.1621 33.0667C18.1287 33.0667 18.0953 32.98 18.0953 32.8733C18.0953 32.76 18.0686 32.66 18.0352 32.64C18.0018 32.6133 17.9551 32.48 17.9284 32.3333C17.9016 32.1867 17.8616 32.0667 17.8349 32.0667C17.8082 32.0667 17.7814 32 17.7814 31.92C17.7748 31.8333 17.7347 31.76 17.6946 31.7467C17.6612 31.7333 17.6279 31.6533 17.6279 31.5667C17.6279 31.48 17.6011 31.3867 17.5611 31.3667C17.5277 31.3467 17.4943 31.2533 17.4943 31.16C17.4943 31.0733 17.4676 31 17.4275 31C17.3941 31 17.3474 30.8533 17.3207 30.6667C17.294 30.4667 17.2472 30.3533 17.2072 30.38C17.1738 30.4 17.1604 30.3933 17.1804 30.3533C17.2005 30.32 17.1738 30.2067 17.1203 30.1067C17.0736 30 17.0269 29.86 17.0269 29.7933C17.0269 29.72 17.0001 29.6667 16.9601 29.6667C16.9267 29.6667 16.8933 29.5933 16.8933 29.5067C16.8933 29.4133 16.8666 29.3267 16.8332 29.3067C16.7998 29.28 16.7531 29.1467 16.7263 29C16.6996 28.8533 16.6596 28.7333 16.6395 28.7333C16.5861 28.7333 16.4258 28.2533 16.4258 28.1C16.4258 28.0467 16.4058 28 16.3791 28C16.3457 28 16.2923 27.9267 16.2455 27.8333C16.2055 27.74 16.1988 27.68 16.2322 27.7C16.2589 27.72 16.2455 27.6533 16.1921 27.5533C16.1387 27.4533 16.092 27.3 16.092 27.22C16.092 27.1333 16.0652 27.0667 16.0252 27.0667C15.9918 27.0667 15.9584 26.98 15.9584 26.8667C15.9584 26.76 15.9317 26.6667 15.8916 26.6667C15.8582 26.6667 15.8248 26.5933 15.8248 26.5C15.8248 26.4067 15.7981 26.3333 15.7581 26.3333C15.7247 26.3333 15.6913 26.2733 15.6913 26.2067C15.6913 26.1333 15.6646 26.06 15.6312 26.04C15.5978 26.0133 15.5511 25.8733 15.5243 25.72C15.4709 25.4 15.3641 25.2667 15.1637 25.2667C15.0836 25.2667 15.0235 25.24 15.0235 25.2C15.0235 25.1667 14.9367 25.1333 14.8299 25.1333C14.723 25.1333 14.6228 25.1 14.6095 25.06C14.5961 25.0267 14.4626 24.9733 14.3023 24.9533C14.1487 24.9333 14.0218 24.8867 14.0218 24.86C14.0218 24.8267 13.9484 24.8 13.8549 24.8C13.7614 24.8 13.688 24.7733 13.688 24.7333C13.688 24.7 13.6011 24.6667 13.4876 24.6667C13.3808 24.6667 13.2873 24.64 13.2873 24.6C13.2873 24.5667 13.2405 24.5333 13.1871 24.5333C13.1337 24.5333 13.087 24.5067 13.087 24.4733C13.087 24.4267 12.7597 24.3467 12.4392 24.32C12.3925 24.3133 12.3524 24.2867 12.3524 24.2533C12.3524 24.2267 12.2789 24.2 12.1854 24.2C12.092 24.2 12.0185 24.1733 12.0185 24.1333C12.0185 24.1 11.925 24.0667 11.8115 24.0667C11.698 24.0667 11.6245 24.04 11.6512 24C11.6713 23.9667 11.6312 23.9333 11.5577 23.9333C11.4776 23.9333 11.4175 23.9067 11.4175 23.8733C11.4175 23.84 11.2506 23.7867 11.0502 23.7667C10.8499 23.74 10.6829 23.6933 10.6829 23.66C10.6829 23.6267 10.6028 23.6 10.5093 23.6C10.4158 23.6 10.3557 23.5733 10.3824 23.5333C10.4092 23.4933 10.3491 23.4667 10.2556 23.4667C10.1621 23.4667 10.0819 23.44 10.0819 23.4C10.0819 23.3667 10.0085 23.3333 9.915 23.3333C9.82151 23.3333 9.74805 23.3067 9.74805 23.2733C9.74805 23.24 9.58111 23.1933 9.38077 23.1667C9.18044 23.1467 9.01349 23.0933 9.01349 23.06C9.01349 23.0267 8.95339 23 8.87994 23C8.80648 23 8.74638 22.9733 8.74638 22.9333C8.74638 22.9 8.67293 22.8667 8.57944 22.8667C8.48595 22.8667 8.41249 22.84 8.41249 22.8C8.41249 22.7667 8.32568 22.7333 8.21216 22.7333C8.10531 22.7333 8.01183 22.7067 8.01183 22.6733C8.01183 22.64 7.88495 22.6 7.73136 22.5733C7.40415 22.52 7.07693 22.3933 7.07693 22.32C7.07693 22.2867 7.00348 22.2667 6.91667 22.2667C6.82318 22.2667 6.72969 22.24 6.70965 22.2C6.68962 22.1667 6.60949 22.1333 6.53603 22.1333C6.46925 22.1333 6.40915 22.1067 6.40915 22.0667C6.40915 22.0333 6.26224 21.9867 6.07526 21.96C5.89496 21.9333 5.74137 21.8933 5.74137 21.86C5.74137 21.8267 5.66792 21.8 5.57443 21.8C5.48094 21.8 5.40748 21.7733 5.40748 21.7333C5.40748 21.7 5.34738 21.6667 5.27393 21.6667C5.20047 21.6667 5.07359 21.6333 4.98678 21.5867C4.68628 21.4333 4.6195 21.4067 4.3791 21.3667C4.24555 21.34 4.11867 21.2933 4.09864 21.26C4.0786 21.2267 3.99179 21.2 3.8983 21.2C3.81149 21.2 3.73804 21.1733 3.73804 21.1333C3.73804 21.1 3.64455 21.0667 3.53102 21.0667C3.4175 21.0667 3.34405 21.04 3.37076 21C3.39079 20.9667 3.35072 20.9333 3.27727 20.9333C3.19713 20.9333 3.13703 20.9067 3.13703 20.8733C3.13703 20.84 2.9968 20.7933 2.82985 20.7667C2.65623 20.74 2.46258 20.6933 2.3958 20.66C2.32234 20.6267 2.20882 20.5733 2.13536 20.5333C2.06191 20.4933 1.95506 20.4667 1.90164 20.4667C1.84822 20.4667 1.80147 20.44 1.80147 20.4067C1.80147 20.3733 1.68795 20.3333 1.54772 20.3067C1.11366 20.24 0.799805 20.08 0.799805 19.9333C0.799805 19.7867 1.02685 19.6667 1.30732 19.6667C1.39413 19.6667 1.46758 19.64 1.46758 19.6C1.46758 19.5667 1.54104 19.5333 1.62785 19.5333C1.71466 19.5333 1.80147 19.5 1.81483 19.4667C1.82819 19.4267 1.90164 19.3867 1.98845 19.38C2.06859 19.38 2.13536 19.3467 2.13536 19.32C2.13536 19.2933 2.19546 19.2667 2.26892 19.2667C2.34238 19.2667 2.40248 19.24 2.40248 19.2133C2.40248 19.18 2.44254 19.1533 2.48929 19.1467C2.80982 19.12 3.13703 19.04 3.13703 18.9933C3.13703 18.96 3.21049 18.9333 3.30398 18.9333C3.39747 18.9333 3.47092 18.9067 3.47092 18.8667C3.47092 18.8333 3.53102 18.8 3.5978 18.8C3.67126 18.8 3.75139 18.7733 3.77142 18.7333C3.79146 18.7 3.87159 18.6667 3.94505 18.6667C4.01182 18.6667 4.07192 18.64 4.07192 18.6067C4.07192 18.5733 4.23887 18.52 4.4392 18.5C4.63954 18.4733 4.80648 18.4267 4.80648 18.3933C4.80648 18.36 4.87994 18.3333 4.97343 18.3333C5.06692 18.3333 5.14037 18.3067 5.14037 18.2667C5.14037 18.2333 5.20047 18.2 5.27393 18.2C5.34738 18.2 5.40748 18.1733 5.40748 18.1333C5.40748 18.1 5.48094 18.0667 5.57443 18.0667C5.66792 18.0667 5.74137 18.04 5.74137 18.0067C5.74137 17.9733 5.88829 17.9333 6.07526 17.9067C6.25556 17.88 6.40915 17.8333 6.40915 17.8C6.40915 17.76 6.46925 17.7333 6.53603 17.7333C6.60949 17.7333 6.68962 17.7067 6.70965 17.6667C6.72969 17.6333 6.82318 17.6 6.91667 17.6C7.00348 17.6 7.07693 17.5733 7.07693 17.5333C7.07693 17.5 7.15039 17.4667 7.2372 17.4667C7.32401 17.4667 7.41082 17.44 7.42418 17.4067C7.43753 17.3733 7.56441 17.3267 7.71132 17.3067C7.85824 17.28 7.99179 17.2333 7.99847 17.2C8.01183 17.16 8.11199 17.1333 8.21884 17.1333C8.32568 17.1333 8.41249 17.1067 8.41249 17.0667C8.41249 17.0333 8.48595 17 8.57944 17C8.67293 17 8.74638 16.9733 8.74638 16.9333C8.74638 16.9 8.80648 16.8667 8.87994 16.8667C8.95339 16.8667 9.01349 16.84 9.01349 16.8067C9.01349 16.7733 9.14705 16.7267 9.314 16.7067C9.48094 16.68 9.69463 16.62 9.7948 16.5667C9.89496 16.5133 9.99513 16.4867 10.0285 16.5067C10.0552 16.5267 10.0819 16.5133 10.0819 16.48C10.0819 16.4467 10.2088 16.38 10.3691 16.3333C10.5227 16.28 10.6829 16.22 10.7163 16.1933C10.7564 16.1667 10.8966 16.1267 11.0369 16.1C11.1704 16.0733 11.2839 16.02 11.2839 15.9733C11.2839 15.9333 11.3173 15.9467 11.3507 16C11.3841 16.0533 11.4175 16.0667 11.4175 16.0267C11.4175 15.98 11.5511 15.9067 11.718 15.86C11.8849 15.8133 12.0185 15.7467 12.0185 15.72C12.0185 15.6933 12.092 15.6667 12.1788 15.6667C12.2723 15.6667 12.3657 15.64 12.3858 15.6C12.4058 15.5667 12.5728 15.52 12.7531 15.4933C12.94 15.4667 13.087 15.4267 13.087 15.3933C13.087 15.36 13.1337 15.3333 13.1871 15.3333C13.2405 15.3333 13.2873 15.3067 13.2873 15.2667C13.2873 15.2333 13.3808 15.2 13.4876 15.2C13.6011 15.2 13.688 15.1733 13.688 15.14C13.688 15.1067 13.8215 15.06 13.9885 15.04C14.1554 15.0133 14.289 14.9667 14.289 14.9267C14.289 14.8933 14.3624 14.8667 14.4559 14.8667C14.5494 14.8667 14.6228 14.84 14.6228 14.8C14.6228 14.7667 14.7163 14.7333 14.8232 14.7333C14.9367 14.7333 15.0235 14.7067 15.0235 14.6667C15.0235 14.6333 15.0836 14.6 15.1637 14.6C15.2372 14.6 15.3374 14.56 15.3841 14.5133C15.4642 14.4333 15.5978 13.9667 15.5711 13.8467C15.5644 13.82 15.5911 13.8 15.6245 13.8C15.6646 13.8 15.6913 13.7067 15.6913 13.5933C15.6913 13.48 15.718 13.4067 15.7581 13.4333C15.7981 13.4533 15.8248 13.4133 15.8248 13.34C15.8248 13.26 15.8582 13.2 15.8916 13.2C15.9317 13.2 15.9584 13.1133 15.9584 13C15.9584 12.8933 15.9851 12.8 16.0185 12.8C16.0519 12.8 16.0986 12.68 16.1253 12.5333C16.1521 12.3867 16.1988 12.2533 16.2322 12.2267C16.2656 12.2067 16.2923 12.12 16.2923 12.0267C16.2923 11.94 16.3257 11.8667 16.3591 11.8667C16.3991 11.8667 16.4258 11.7933 16.4258 11.7C16.4258 11.6067 16.4592 11.5333 16.4926 11.5333C16.5327 11.5333 16.5594 11.4467 16.5594 11.3333C16.5594 11.2267 16.5861 11.1333 16.6195 11.1333C16.6529 11.1333 16.6996 11.0067 16.7263 10.8533C16.7597 10.6933 16.7864 10.5533 16.7931 10.5333C16.8065 10.5133 16.8332 10.4333 16.8599 10.3533C16.8866 10.2667 16.9334 10.2 16.9667 10.2C17.0001 10.2 17.0269 10.1267 17.0269 10.04C17.0269 9.94667 17.0602 9.85333 17.0936 9.83333C17.1337 9.81333 17.1604 9.72 17.1604 9.62667C17.1604 9.54 17.1871 9.46667 17.2205 9.46667C17.2606 9.46667 17.3073 9.33333 17.334 9.16667C17.3541 9 17.4008 8.86667 17.4342 8.86667C17.4676 8.86667 17.4943 8.79333 17.4943 8.7C17.4943 8.60667 17.5277 8.53333 17.5611 8.53333C17.6011 8.53333 17.6279 8.44667 17.6279 8.33333C17.6279 8.22667 17.6612 8.13333 17.6946 8.13333C17.7347 8.13333 17.7614 8.08667 17.7614 8.03333C17.7614 7.98 17.7881 7.93333 17.8215 7.93333C17.8549 7.93333 17.895 7.78667 17.9217 7.6C17.9484 7.42 17.9951 7.25333 18.0285 7.23333C18.0686 7.21333 18.0953 7.1 18.0953 6.99333C18.0953 6.87333 18.122 6.80667 18.1621 6.83333C18.1955 6.85333 18.2289 6.81333 18.2289 6.74C18.2289 6.66 18.2622 6.6 18.2956 6.6C18.3357 6.6 18.3624 6.51333 18.3624 6.4C18.3624 6.29333 18.3958 6.2 18.4292 6.2C18.4693 6.2 18.496 6.14667 18.496 6.08667C18.496 5.93333 18.7163 5.30667 18.7831 5.28C18.8098 5.26667 18.8299 5.18 18.8299 5.09333C18.8299 5.00667 18.8632 4.93333 18.8966 4.93333C18.9367 4.93333 18.9634 4.86 18.9634 4.76667C18.9634 4.67333 18.9901 4.6 19.0235 4.6C19.0569 4.6 19.1036 4.46667 19.1237 4.3C19.1504 4.14 19.1971 3.98667 19.2372 3.96667C19.2706 3.94 19.2973 3.85333 19.2973 3.76C19.2973 3.67333 19.3307 3.6 19.3641 3.6C19.4041 3.6 19.4309 3.52667 19.4309 3.43333C19.4309 3.34 19.4642 3.26667 19.4976 3.26667C19.5377 3.26667 19.5644 3.18 19.5644 3.06667C19.5644 2.96 19.5911 2.86667 19.6312 2.86667C19.6646 2.86667 19.718 2.74667 19.738 2.6C19.7647 2.45333 19.8115 2.31333 19.8382 2.29333C19.8716 2.27333 19.8983 2.18667 19.8983 2.09333C19.8983 2.00667 19.9317 1.93333 19.9651 1.93333C20.0051 1.93333 20.0319 1.84667 20.0319 1.73333C20.0319 1.62667 20.0652 1.53333 20.0986 1.53333C20.1387 1.53333 20.1654 1.49333 20.1654 1.44C20.1654 1.39333 20.2122 1.26 20.2656 1.16C20.319 1.05333 20.3657 0.886667 20.3657 0.786667C20.3657 0.68 20.3991 0.6 20.4325 0.6C20.4726 0.6 20.4993 0.526667 20.4993 0.433333C20.4993 0.34 20.5327 0.266667 20.5661 0.266667C20.6061 0.266667 20.6329 0.206667 20.6329 0.133333C20.6329 0.0333333 20.6796 0 20.7998 0C20.92 0 20.9668 0.0333333 20.9668 0.133333C20.9668 0.206667 21.0001 0.266667 21.0335 0.266667C21.0736 0.266667 21.1003 0.34 21.1003 0.433333C21.1003 0.526667 21.1337 0.6 21.1671 0.6C21.2072 0.6 21.2339 0.693333 21.2339 0.8C21.2339 0.913333 21.2606 1 21.2873 1C21.3541 1 21.5678 1.58667 21.5678 1.78667C21.5678 1.86667 21.6011 1.93333 21.6345 1.93333C21.6746 1.93333 21.7013 2.00667 21.7013 2.1C21.7013 2.19333 21.7347 2.26667 21.7681 2.26667C21.8082 2.26667 21.8349 2.32 21.8349 2.39333C21.8349 2.46 21.8816 2.60667 21.935 2.70667C21.9885 2.81333 22.0352 2.98 22.0352 3.08667C22.0352 3.18667 22.0686 3.26667 22.102 3.26667C22.142 3.26667 22.1688 3.34 22.1688 3.43333C22.1688 3.52667 22.2021 3.6 22.2355 3.6C22.2756 3.6 22.3023 3.66 22.3023 3.72667C22.3023 3.8 22.3357 3.88 22.3691 3.9C22.4092 3.92 22.4359 4 22.4359 4.07333C22.4359 4.14 22.4626 4.2 22.496 4.2C22.5294 4.2 22.5828 4.36667 22.6028 4.56667C22.6295 4.76667 22.6763 4.93333 22.7097 4.93333C22.743 4.93333 22.7698 5.00667 22.7698 5.1C22.7698 5.19333 22.8031 5.26667 22.8365 5.26667C22.8766 5.26667 22.9033 5.32667 22.9033 5.4C22.9033 5.47333 22.9367 5.53333 22.9701 5.53333C23.0102 5.53333 23.0369 5.60667 23.0369 5.7C23.0369 5.79333 23.0636 5.86667 23.097 5.86667C23.1304 5.86667 23.1771 6.03333 23.2038 6.23333C23.2238 6.43333 23.2773 6.6 23.3107 6.6C23.344 6.6 23.3708 6.66 23.3708 6.73333C23.3708 6.80667 23.4041 6.86667 23.4375 6.86667C23.4776 6.86667 23.5043 6.94 23.5043 7.03333C23.5043 7.12667 23.5377 7.2 23.5711 7.2C23.6112 7.2 23.6379 7.27333 23.6379 7.36C23.6379 7.45333 23.6646 7.54 23.698 7.56C23.7247 7.58 23.7714 7.72 23.7981 7.86667C23.8182 8.01333 23.8716 8.13333 23.905 8.13333C23.945 8.13333 23.9718 8.22667 23.9718 8.33333C23.9718 8.44667 24.0051 8.53333 24.0385 8.53333C24.0786 8.53333 24.1053 8.60667 24.1053 8.7C24.1053 8.79333 24.1387 8.86667 24.1721 8.86667C24.2122 8.86667 24.2389 8.94 24.2389 9.03333C24.2389 9.12667 24.2656 9.2 24.3056 9.2C24.339 9.2 24.3858 9.34667 24.4125 9.53333C24.4392 9.71333 24.4793 9.86667 24.5127 9.86667C24.546 9.86667 24.5728 9.94 24.5728 10.0333C24.5728 10.1267 24.6061 10.2 24.6395 10.2C24.6796 10.2 24.7063 10.2733 24.7063 10.3667C24.7063 10.46 24.7397 10.5333 24.7731 10.5333C24.8132 10.5333 24.8399 10.5933 24.8399 10.6667C24.8399 10.74 24.8666 10.8 24.9 10.8C24.9334 10.8 24.9801 10.9667 25.0068 11.1667C25.0268 11.3667 25.0803 11.5333 25.1137 11.5333C25.1471 11.5333 25.1738 11.6067 25.1738 11.7C25.1738 11.7933 25.2072 11.8667 25.2405 11.8667C25.2806 11.8667 25.3073 11.9467 25.3073 12.04C25.3073 12.1333 25.334 12.1933 25.3741 12.1667C25.4142 12.1467 25.4409 12.2 25.4409 12.2933C25.4409 12.3867 25.4676 12.48 25.5077 12.5C25.541 12.52 25.5878 12.6867 25.6145 12.8667C25.6412 13.0533 25.6813 13.2 25.7147 13.2C25.7481 13.2 25.7748 13.2733 25.7748 13.3667C25.7748 13.46 25.8082 13.5333 25.8415 13.5333C25.8816 13.5333 25.9083 13.5933 25.9083 13.66C25.9083 13.7333 25.9417 13.8133 25.9751 13.8333C26.0085 13.8533 26.0419 13.9333 26.0419 14.0067C26.0419 14.0733 26.0753 14.1333 26.1087 14.1333C26.1487 14.1333 26.1754 14.1933 26.1754 14.26C26.1754 14.4867 26.2556 14.6 26.4092 14.6C26.496 14.6 26.5895 14.6333 26.6095 14.6667C26.6295 14.7067 26.723 14.7333 26.8165 14.7333C26.9033 14.7333 26.9768 14.7667 26.9768 14.8C26.9768 14.84 27.0369 14.8667 27.1103 14.8667C27.1838 14.8667 27.2439 14.8933 27.2439 14.9333C27.2439 14.9667 27.2639 14.9933 27.2973 14.9933C27.4108 14.9667 27.9117 15.0867 27.9117 15.14C27.9117 15.1733 28.0051 15.2 28.112 15.2C28.2255 15.2 28.3123 15.2333 28.3123 15.2667C28.3123 15.3067 28.3724 15.3333 28.4459 15.3333C28.5193 15.3333 28.5794 15.3667 28.5794 15.4C28.5794 15.44 28.6529 15.4667 28.7464 15.4667C28.8399 15.4667 28.9133 15.4933 28.9133 15.5267C28.9133 15.5533 28.9868 15.5667 29.0803 15.5467C29.1804 15.5333 29.2472 15.5467 29.2472 15.5933C29.2472 15.6333 29.3207 15.6667 29.4142 15.6667C29.5077 15.6667 29.5811 15.7 29.5811 15.7333C29.5811 15.7733 29.6546 15.8 29.7481 15.8C29.8415 15.8 29.915 15.8333 29.915 15.8667C29.915 15.9067 29.9885 15.9333 30.0819 15.9333C30.1754 15.9333 30.2489 15.96 30.2489 15.9933C30.2489 16.04 30.5026 16.1067 30.8632 16.16C30.8833 16.1667 30.93 16.1867 30.9567 16.2133C30.9834 16.2467 31.0769 16.2667 31.1637 16.2667C31.2439 16.2667 31.3173 16.3 31.3173 16.3333C31.3173 16.3733 31.3641 16.4 31.4175 16.4C31.4709 16.4 31.5177 16.4333 31.5177 16.4667C31.5177 16.5067 31.6112 16.5333 31.718 16.5333C31.8315 16.5333 31.9183 16.5667 31.9183 16.6C31.9183 16.64 31.9851 16.6667 32.0719 16.6733C32.2923 16.68 32.9334 16.9 32.8799 16.9533C32.8532 16.98 32.9267 17 33.0402 17C33.1604 17 33.2539 17.0333 33.2539 17.0667C33.2539 17.1067 33.3274 17.1333 33.4208 17.1333C33.5143 17.1333 33.5878 17.16 33.5878 17.1933C33.5878 17.2267 33.708 17.2733 33.8549 17.3C34.0018 17.3267 34.1354 17.3733 34.1621 17.4067C34.1821 17.44 34.2689 17.4667 34.3624 17.4667C34.4492 17.4667 34.5227 17.5 34.5227 17.5333C34.5227 17.5733 34.5828 17.6 34.6562 17.6C34.7297 17.6 34.8499 17.6333 34.9233 17.6667C34.9968 17.7067 35.117 17.76 35.1905 17.8C35.2572 17.8333 35.4375 17.8867 35.5911 17.9067C35.738 17.9333 35.8582 17.9733 35.8582 18.0067C35.8582 18.04 35.9117 18.0667 35.9851 18.0667C36.0519 18.0667 36.1921 18.1133 36.299 18.16C36.3991 18.2133 36.5127 18.24 36.5461 18.22C36.5861 18.2 36.5928 18.2133 36.5661 18.2533C36.5327 18.3067 36.5861 18.3333 36.7264 18.3333C36.8399 18.3333 36.92 18.36 36.9 18.3933C36.8799 18.4267 36.9868 18.4733 37.1404 18.4933C37.294 18.52 37.4542 18.5667 37.501 18.6C37.541 18.64 37.6546 18.6733 37.7547 18.68C37.8482 18.6867 37.9284 18.72 37.9284 18.7467C37.9284 18.7733 37.9751 18.8 38.0285 18.8C38.0819 18.8 38.1287 18.8267 38.1287 18.8533C38.1287 18.88 38.2088 18.9133 38.309 18.92C38.4092 18.9267 38.5026 18.96 38.5227 18.9933C38.5627 19.0467 39.0502 19.1667 39.1504 19.1467C39.1771 19.14 39.1971 19.1667 39.1971 19.2C39.1971 19.24 39.2706 19.2667 39.3641 19.2667C39.4576 19.2667 39.531 19.3 39.531 19.3333C39.531 19.3733 39.6112 19.4 39.7046 19.4C39.7981 19.4 39.8582 19.4267 39.8315 19.4667C39.8048 19.5067 39.8783 19.5333 39.9918 19.5333C40.1053 19.5333 40.1988 19.56 40.1988 19.5933C40.1988 19.6267 40.3324 19.6733 40.4993 19.6933C40.7798 19.74 40.7998 19.7533 40.7998 19.94C40.7998 20.0867 40.7664 20.1333 40.6729 20.1333C40.5995 20.1333 40.526 20.16 40.4993 20.1933C40.4793 20.2333 40.319 20.28 40.1454 20.3067C39.9718 20.3333 39.8182 20.3733 39.7981 20.3933C39.7247 20.48 39.4576 20.6 39.3307 20.6C39.2572 20.6 39.1971 20.6267 39.1971 20.66C39.1971 20.6933 39.0502 20.74 38.8632 20.7667C38.6829 20.7933 38.5294 20.84 38.5294 20.8733C38.5294 20.9067 38.4425 20.9333 38.329 20.9333C38.2222 20.9333 38.1287 20.9667 38.1287 21C38.1287 21.04 38.0686 21.0667 37.9885 21.0667C37.915 21.0667 37.8749 21.1 37.895 21.1333C37.9217 21.1733 37.8482 21.2 37.7347 21.2C37.6212 21.2 37.5277 21.2267 37.5277 21.26C37.5277 21.2933 37.3808 21.34 37.1938 21.3667C37.0135 21.3933 36.8599 21.4333 36.8599 21.46C36.8599 21.4867 36.713 21.5533 36.526 21.6C36.3457 21.6467 36.1921 21.7133 36.1921 21.7467C36.1921 21.7733 36.1187 21.8 36.0252 21.8C35.9317 21.8 35.8582 21.8267 35.8582 21.86C35.8582 21.8933 35.738 21.9333 35.5911 21.96C35.4442 21.98 35.2172 22.06 35.0903 22.1333C34.9567 22.2067 34.7764 22.2667 34.6896 22.2667C34.5961 22.2667 34.5227 22.3 34.5227 22.3333C34.5227 22.3733 34.4492 22.4 34.3557 22.4C34.2622 22.4 34.1888 22.4267 34.1888 22.46C34.1888 22.4933 34.0552 22.54 33.8883 22.56C33.7213 22.5867 33.5878 22.6333 33.5878 22.6733C33.5878 22.7067 33.5143 22.7333 33.4275 22.7333C33.334 22.7333 33.2405 22.7667 33.2205 22.8C33.2005 22.84 33.107 22.8667 33.0135 22.8667C32.9267 22.8667 32.8532 22.8867 32.8532 22.92C32.8532 22.9933 32.526 23.12 32.1988 23.1733C32.0452 23.2 31.8983 23.2467 31.8783 23.2733C31.8582 23.3067 31.7714 23.3333 31.6779 23.3333C31.5911 23.3333 31.5177 23.3667 31.5177 23.4C31.5177 23.44 31.4709 23.4667 31.4175 23.4667C31.3641 23.4667 31.3173 23.4933 31.3173 23.52C31.3173 23.5467 31.2372 23.58 31.137 23.5867C31.0369 23.5933 30.9434 23.6267 30.9233 23.66C30.9033 23.6933 30.743 23.74 30.5694 23.7667C30.3891 23.7933 30.2489 23.84 30.2489 23.8733C30.2489 23.9067 30.1888 23.9333 30.1153 23.9333C30.0419 23.9333 29.9818 23.96 29.9818 23.9867C29.9818 24.0133 29.9016 24.0467 29.8015 24.0533C29.6946 24.06 29.6078 24.1 29.5945 24.1333C29.5811 24.1733 29.501 24.2 29.4142 24.2C29.3274 24.2 29.2405 24.2267 29.2205 24.26C29.2005 24.2933 29.0669 24.34 28.9334 24.36C28.6262 24.42 28.3123 24.5467 28.3123 24.6133C28.3123 24.6467 28.2255 24.6667 28.112 24.6667C28.0051 24.6667 27.9117 24.7 27.9117 24.7333C27.9117 24.7733 27.8449 24.8 27.7581 24.8C27.6713 24.8 27.5711 24.8333 27.531 24.8733C27.491 24.9133 27.3574 24.96 27.2372 24.98C27.1103 24.9933 27.0035 25.04 26.9901 25.0733C26.9768 25.1067 26.8966 25.1333 26.8098 25.1333C26.723 25.1333 26.6295 25.1667 26.6095 25.2C26.5895 25.24 26.496 25.2667 26.4025 25.2667C26.2756 25.2667 26.2289 25.3067 26.1955 25.4667C26.1754 25.58 26.1287 25.6867 26.102 25.7067C26.0686 25.7267 26.0419 25.8133 26.0419 25.9067C26.0419 25.9933 26.0152 26.0667 25.9751 26.0667C25.9417 26.0667 25.9083 26.16 25.9083 26.2733C25.9083 26.3867 25.8816 26.46 25.8415 26.4333C25.8082 26.4133 25.7748 26.4533 25.7748 26.5267C25.7748 26.6067 25.7481 26.6667 25.7147 26.6667C25.6679 26.6667 25.5878 26.9867 25.5611 27.3133C25.5544 27.36 25.5277 27.38 25.4943 27.36C25.4676 27.34 25.4409 27.4 25.4409 27.4933C25.4409 27.5867 25.4142 27.6667 25.3741 27.6667C25.3407 27.6667 25.3073 27.74 25.3073 27.8333C25.3073 27.9267 25.2806 28 25.2405 28C25.2072 28 25.1738 28.0933 25.1738 28.2C25.1738 28.3133 25.1471 28.4 25.1137 28.4C25.0602 28.4 24.94 28.9 24.9667 29.02C24.9734 29.0533 24.9467 29.06 24.9067 29.0333C24.8666 29.0067 24.8399 29.06 24.8399 29.16C24.8399 29.2533 24.8132 29.3333 24.7731 29.3333C24.7397 29.3333 24.7063 29.4067 24.7063 29.5C24.7063 29.5933 24.6796 29.6667 24.6529 29.6667C24.6262 29.6667 24.5928 29.7467 24.5861 29.8467C24.5794 29.9467 24.546 30.04 24.5127 30.06C24.4793 30.08 24.4325 30.2267 24.4058 30.3867C24.3791 30.54 24.3324 30.6667 24.299 30.6667C24.2656 30.6667 24.2389 30.74 24.2389 30.8333C24.2389 30.9267 24.2122 31 24.1721 31C24.1387 31 24.1053 31.0933 24.1053 31.2C24.1053 31.3133 24.0786 31.4 24.0385 31.4C24.0051 31.4 23.9718 31.4733 23.9718 31.5667C23.9718 31.66 23.945 31.7333 23.905 31.7333C23.8716 31.7333 23.8182 31.8533 23.7981 32C23.7714 32.1467 23.7247 32.2867 23.698 32.3067C23.6646 32.3267 23.6379 32.4133 23.6379 32.5067C23.6379 32.5933 23.6112 32.6667 23.5711 32.6667C23.5377 32.6667 23.5043 32.76 23.5043 32.8733C23.5043 32.9867 23.4776 33.06 23.4375 33.0333C23.4041 33.0133 23.3708 33.0533 23.3708 33.1267C23.3708 33.2067 23.344 33.2667 23.3107 33.2667C23.2773 33.2667 23.2372 33.4133 23.2105 33.6C23.1838 33.78 23.137 33.9467 23.1036 33.9667C23.0636 33.9867 23.0369 34.08 23.0369 34.1733C23.0369 34.26 23.0102 34.3333 22.9701 34.3333C22.9367 34.3333 22.9033 34.4133 22.9033 34.5067C22.9033 34.6 22.8766 34.66 22.8365 34.6333C22.7965 34.6067 22.7698 34.6667 22.7698 34.76C22.7698 34.8533 22.743 34.9333 22.7097 34.9333C22.6763 34.9333 22.6362 35.08 22.6095 35.2667C22.5828 35.4467 22.536 35.6133 22.5026 35.6333C22.4626 35.6533 22.4359 35.7333 22.4359 35.8067C22.4359 35.8733 22.4092 35.9333 22.3691 35.9333C22.3357 35.9333 22.3023 36.0067 22.3023 36.1C22.3023 36.1933 22.2689 36.2667 22.2289 36.2667C22.1955 36.2667 22.1754 36.2933 22.1955 36.32C22.2155 36.3533 22.1821 36.46 22.1287 36.5667C22.0753 36.6667 22.0152 36.8667 21.9951 37.0067C21.9684 37.1533 21.9284 37.2667 21.895 37.2667C21.8616 37.2667 21.8349 37.34 21.8349 37.4333C21.8349 37.5267 21.8082 37.6 21.7681 37.6C21.7347 37.6 21.7013 37.6733 21.7013 37.7667C21.7013 37.86 21.6746 37.9333 21.6412 37.9333C21.6078 37.9333 21.5678 38.0533 21.541 38.2C21.501 38.4667 21.4743 38.5333 21.314 38.8467C21.2673 38.9333 21.2339 39.06 21.2339 39.1333C21.2339 39.2067 21.2072 39.2667 21.1671 39.2667C21.1337 39.2667 21.1003 39.34 21.1003 39.4333C21.1003 39.5267 21.0736 39.6 21.0335 39.6C21.0001 39.6 20.9668 39.6467 20.9668 39.7067C20.9668 39.8067 20.7931 39.9933 20.6996 40C20.6796 40 20.6529 39.92 20.6462 39.82Z" stroke="white" stroke-width="24.8168" mask="url(#path-1-inside-1_4247_584)"/>
</g>
</svg>
