<svg width="62" height="61" viewBox="0 0 62 61" fill="none" xmlns="http://www.w3.org/2000/svg">
<g id="Social Icons">
<path id="Vector" d="M0.333496 61.0006L4.62126 45.3364C1.9754 40.7513 0.58512 35.5536 0.587661 30.2238C0.595286 13.5607 14.155 0.000976562 30.8155 0.000976562C38.9005 0.00351821 46.4899 3.15262 52.1984 8.86626C57.9044 14.5799 61.0459 22.1743 61.0434 30.2517C61.0358 46.9173 47.4761 60.477 30.8155 60.477C25.7576 60.4745 20.7735 59.2062 16.3586 56.7967L0.333496 61.0006ZM17.1008 51.3246C21.3606 53.8535 25.4272 55.3683 30.8054 55.3709C44.6523 55.3709 55.9321 44.1012 55.9398 30.2466C55.9448 16.3641 44.7184 5.1097 30.8257 5.10461C16.9686 5.10461 5.69638 16.3743 5.6913 30.2263C5.68876 35.8815 7.34591 40.1159 10.129 44.546L7.58991 53.8179L17.1008 51.3246ZM46.0426 37.437C45.8545 37.1218 45.3512 36.9337 44.5938 36.555C43.839 36.1763 40.1256 34.3489 39.4317 34.0972C38.7404 33.8456 38.2371 33.7185 37.7314 34.4759C37.2281 35.2308 35.7794 36.9337 35.3397 37.437C34.9 37.9402 34.4577 38.0038 33.7028 37.625C32.948 37.2463 30.5131 36.4508 27.6283 33.8761C25.384 31.8733 23.8666 29.4003 23.4269 28.6428C22.9872 27.888 23.3812 27.4788 23.7574 27.1026C24.0979 26.7646 24.5122 26.2207 24.8909 25.7784C25.2747 25.3412 25.3993 25.0261 25.6534 24.5203C25.9051 24.017 25.7805 23.5748 25.5899 23.1961C25.3993 22.8199 23.8895 19.1015 23.2617 17.5892C22.6467 16.1176 22.024 16.3158 21.5614 16.293L20.1126 16.2675C19.6094 16.2675 18.791 16.4556 18.0996 17.213C17.4083 17.9705 15.4563 19.7954 15.4563 23.5138C15.4563 27.2322 18.1632 30.8236 18.5393 31.3268C18.9181 31.8301 23.8641 39.4601 31.4408 42.7312C33.2428 43.509 34.6509 43.9741 35.7463 44.3223C37.556 44.8967 39.203 44.8154 40.5043 44.6222C41.9556 44.4062 44.9725 42.7948 45.6029 41.0309C46.2332 39.2644 46.2332 37.7521 46.0426 37.437Z" fill="#2E282A"/>
</g>
</svg>
