<svg width="62" height="61" viewBox="0 0 62 61" fill="none" xmlns="http://www.w3.org/2000/svg">
<g id="Social Icons" clip-path="url(#clip0_4164_79)">
<path id="Vector" d="M60.8369 18.3011C60.8369 18.3011 60.2412 14.0955 58.4064 12.2488C56.0832 9.81836 53.4859 9.80644 52.2945 9.66347C43.7641 9.04394 30.9566 9.04395 30.9566 9.04395H30.9327C30.9327 9.04395 18.1252 9.04394 9.59477 9.66347C8.40337 9.80644 5.80612 9.81836 3.48289 12.2488C1.64814 14.0955 1.06435 18.3011 1.06435 18.3011C1.06435 18.3011 0.444824 23.2454 0.444824 28.1778V32.8004C0.444824 37.7328 1.05244 42.6771 1.05244 42.6771C1.05244 42.6771 1.64814 46.8828 3.47098 48.7295C5.79421 51.1599 8.84419 51.0765 10.2024 51.3386C15.0871 51.8033 30.9446 51.9462 30.9446 51.9462C30.9446 51.9462 43.7641 51.9224 52.2945 51.3148C53.4859 51.1718 56.0832 51.1599 58.4064 48.7295C60.2412 46.8828 60.8369 42.6771 60.8369 42.6771C60.8369 42.6771 61.4445 37.7448 61.4445 32.8004V28.1778C61.4445 23.2454 60.8369 18.3011 60.8369 18.3011ZM24.6421 38.4119V21.2677L41.1192 29.8696L24.6421 38.4119Z" fill="#2E282A"/>
</g>
<defs>
<clipPath id="clip0_4164_79">
<rect width="60.9996" height="60.9996" fill="white" transform="translate(0.444824 0.000976562)"/>
</clipPath>
</defs>
</svg>
